<?xml version="1.0" encoding="utf-8"?>
<!-- Generator: Adobe Illustrator 16.0.4, SVG Export Plug-In . SVG Version: 6.00 Build 0)  -->
<!DOCTYPE svg PUBLIC "-//W3C//DTD SVG 1.1//EN" "http://www.w3.org/Graphics/SVG/1.1/DTD/svg11.dtd">
<svg version="1.1" id="Layer_1" xmlns="http://www.w3.org/2000/svg" xmlns:xlink="http://www.w3.org/1999/xlink" x="0px" y="0px"
	 width="207.665px" height="59.391px" viewBox="43.709 25.001 207.665 59.391"
	 enable-background="new 43.709 25.001 207.665 59.391" xml:space="preserve">
<g>
	<path d="M62.382,74.466c-0.335,0.116-0.67,0.158-1.009,0.13c-0.335-0.035-0.671-0.042-1.01-0.042c-0.67,0-1.345,0.007-2.016,0.042
		c-0.675,0.028-1.348-0.014-2.019-0.13c0-3.867-0.158-7.611-0.461-11.232c-0.311-3.614-0.605-7.354-0.887-11.226l-0.335-0.167
		c-1.681,2.916-3.378,5.691-5.09,8.326c-1.711,2.636-3.519,5.354-5.425,8.159l-0.42-0.165c0-2.471,0.181-4.928,0.547-7.364
		c0.363-2.438,0.842-4.836,1.431-7.19c0.589-2.356,1.26-4.71,2.02-7.064c0.756-2.354,1.499-4.682,2.229-6.982
		c0.222-0.673,0.49-1.557,0.797-2.648c0.308-1.095,0.616-2.228,0.928-3.409c0.308-1.177,0.575-2.31,0.797-3.405
		c0.223-1.091,0.335-1.975,0.335-2.648c0-0.952-0.223-1.684-0.67-2.188l5.887-0.085c0,1.123,0.041,3.042,0.126,5.764
		c0.086,2.721,0.212,5.818,0.379,9.294c0.167,3.478,0.391,7.119,0.671,10.932c0.28,3.816,0.575,7.361,0.883,10.645
		c0.309,3.279,0.66,6.078,1.055,8.405C61.512,72.543,61.934,73.966,62.382,74.466z M54.897,49.738c0-0.447-0.014-1.191-0.041-2.231
		c-0.031-1.037-0.073-2.197-0.127-3.49c-0.058-1.288-0.14-2.649-0.252-4.076c-0.114-1.431-0.209-2.776-0.294-4.039
		c-0.086-1.263-0.182-2.341-0.295-3.237c-0.114-0.896-0.227-1.485-0.335-1.766c-0.62,2.128-1.263,4.261-1.938,6.39
		c-0.671,2.132-1.304,4.277-1.893,6.433c-0.588,2.16-1.064,4.347-1.427,6.562c-0.366,2.218-0.547,4.445-0.547,6.687
		c0,0.335,0.055,0.689,0.167,1.051c0.114,0.367,0.223,0.689,0.335,0.969c0.448-0.39,0.982-0.995,1.598-1.806
		c0.617-0.815,1.25-1.671,1.893-2.568c0.643-0.896,1.25-1.793,1.811-2.69C54.11,51.028,54.562,50.3,54.897,49.738z"/>
	<path d="M77.544,40.311v1.964c0,2.396,0.054,4.904,0.171,7.529c0.109,2.621,0.239,5.288,0.38,7.994
		c0.144,2.711,0.314,5.396,0.517,8.044c0.194,2.649,0.41,5.175,0.636,7.571l7.276,0.007c0.4-1.828,0.595-3.259,0.595-4.806
		c0-1.534,0.028-2.731,0.089-3.587l0.338-0.084c0.969,1.713,1.955,3.424,2.951,5.135c0.996,1.711,2.07,2.684,3.21,4.332
		c-2.341-0.225-5.377-0.02-9.11-0.163c-3.73-0.145-7.688,0.102-11.846,0.102c0.455-0.513,0.743-1.107,0.852-1.792
		c0.116-0.686,0.175-1.507,0.175-2.479c-0.058-2.629-0.106-5.25-0.127-7.872c-0.031-2.624-0.075-5.276-0.129-7.953
		c-0.058-3.08-0.099-6.116-0.127-9.11c-0.031-2.998-0.102-6.03-0.215-9.11c-0.116-1.827-0.246-3.666-0.387-5.517
		c-0.14-1.852-0.27-3.69-0.387-5.515c4.851,0,2.231,0.031,4.851,0c0,0,0.253,0.417,0.287,1.108c0.031,0.691,0.137,4.22,0.085,6.329
		c-0.058,2.112-0.085,4.251-0.085,6.42"/>
	<path d="M113.011,74.466c-0.335,0.116-0.67,0.158-1.009,0.13c-0.335-0.035-0.671-0.042-1.01-0.042c-0.67,0-1.344,0.007-2.016,0.042
		c-0.674,0.028-1.349-0.014-2.019-0.13c0-3.867-0.158-7.611-0.462-11.232c-0.311-3.614-0.605-7.354-0.887-11.226l-0.334-0.167
		c-1.681,2.916-3.379,5.691-5.09,8.326c-1.711,2.636-3.518,5.354-5.424,8.159l-0.421-0.165c0-2.471,0.182-4.928,0.548-7.364
		c0.362-2.438,0.841-4.836,1.431-7.19c0.589-2.356,1.259-4.71,2.019-7.064c0.757-2.354,1.499-4.682,2.229-6.982
		c0.223-0.673,0.489-1.557,0.798-2.648c0.308-1.095,0.616-2.228,0.927-3.409c0.309-1.177,0.576-2.31,0.797-3.405
		c0.223-1.091,0.335-1.975,0.335-2.648c0-0.952-0.223-1.684-0.671-2.188l5.887-0.085c0,1.123,0.041,3.042,0.126,5.764
		c0.086,2.721,0.212,5.818,0.379,9.294c0.167,3.478,0.39,7.119,0.671,10.932c0.28,3.816,0.575,7.361,0.883,10.645
		c0.308,3.279,0.661,6.078,1.054,8.405C112.141,72.543,112.563,73.966,113.011,74.466z M105.525,49.738
		c0-0.447-0.014-1.191-0.041-2.231c-0.031-1.037-0.073-2.197-0.127-3.49c-0.058-1.288-0.141-2.649-0.252-4.076
		c-0.113-1.431-0.209-2.776-0.295-4.039c-0.085-1.263-0.181-2.341-0.294-3.237s-0.226-1.485-0.334-1.766
		c-0.62,2.128-1.263,4.261-1.938,6.39c-0.671,2.132-1.304,4.277-1.893,6.433c-0.589,2.16-1.064,4.347-1.427,6.562
		c-0.366,2.218-0.547,4.445-0.547,6.687c0,0.335,0.055,0.689,0.167,1.051c0.114,0.367,0.223,0.689,0.335,0.969
		c0.448-0.39,0.982-0.995,1.598-1.806c0.616-0.815,1.25-1.671,1.893-2.568c0.643-0.896,1.25-1.793,1.811-2.69
		C104.738,51.028,105.19,50.3,105.525,49.738z"/>
	<path d="M136.478,25.85c-0.225,0.955-0.464,1.934-0.714,2.943c-0.254,1.009-0.436,1.991-0.548,2.943h-0.503v-0.589
		c0-0.951-0.451-1.721-1.349-2.31c-0.896-0.592-1.738-0.887-2.522-0.887c-0.616,0-1.218,0.157-1.807,0.466
		c-0.589,0.308-1.023,0.684-1.304,1.133c-0.899,1.516-1.612,3.309-2.146,5.383c-0.534,2.078-0.955,4.237-1.263,6.479
		c-0.308,2.242-0.516,4.442-0.629,6.603c-0.113,2.159-0.167,4.106-0.167,5.846c0,1.177,0.014,2.509,0.041,3.993
		c0.027,1.489,0.126,2.976,0.294,4.464c0.168,1.479,0.435,2.902,0.801,4.244c0.362,1.341,0.911,2.49,1.639,3.449
		c0.561,0.726,1.064,1.149,1.512,1.26c0.449,0.108,1.095,0.163,1.938,0.163c0.276,0,0.517-0.082,0.711-0.246
		c0.199-0.17,0.353-0.28,0.466-0.342c0.11,0,0.127,0.075,0.041,0.218c-0.085,0.137-0.072,0.15,0.042,0.042
		c-1.009,1.007-2.074,1.971-3.197,2.902c-1.122,0.916-2.327,1.663-3.614,2.225h-0.42c-1.517-2.13-2.567-4.471-3.156-7.023
		c-0.588-2.554-0.883-5.113-0.883-7.698c0-2.073,0.068-4.12,0.209-6.14c0.141-2.02,0.325-4.035,0.547-6.054
		c0.167-1.907,0.394-3.912,0.674-6.015c0.281-2.104,0.702-4.134,1.261-6.098c0.561-1.962,1.331-3.827,2.313-5.592
		c0.982-1.769,2.286-3.296,3.911-4.586c0.675-0.558,1.459-1.023,2.355-1.386c0.897-0.367,1.793-0.548,2.693-0.548
		c0.278,0,0.758,0.072,1.428,0.209C135.804,25.443,136.253,25.627,136.478,25.85z"/>
	<path d="M158.515,74.466c-0.343,0.116-0.672,0.158-1.012,0.13c-0.336-0.035-0.673-0.042-1.014-0.042
		c-0.671,0-1.341,0.007-2.012,0.042c-0.675,0.028-1.349-0.014-2.02-0.13c0-3.867-0.157-7.611-0.463-11.232
		c-0.312-3.614-0.605-7.354-0.886-11.226l-0.336-0.167c-1.679,2.916-3.378,5.691-5.089,8.326c-1.711,2.636-3.519,5.354-5.425,8.159
		l-0.421-0.165c0-2.471,0.182-4.928,0.547-7.364c0.363-2.438,0.842-4.836,1.432-7.19c0.588-2.356,1.259-4.71,2.019-7.064
		c0.757-2.354,1.499-4.682,2.228-6.982c0.223-0.673,0.489-1.557,0.798-2.648c0.308-1.095,0.616-2.228,0.928-3.409
		c0.309-1.177,0.574-2.31,0.797-3.405c0.223-1.091,0.337-1.975,0.337-2.648c0-0.952-0.223-1.684-0.672-2.188l5.888-0.085
		c0,1.123,0.04,3.042,0.126,5.764c0.086,2.721,0.213,5.818,0.378,9.294c0.169,3.478,0.392,7.119,0.673,10.932
		c0.28,3.816,0.57,7.361,0.886,10.645c0.302,3.279,0.657,6.078,1.054,8.405C157.639,72.543,158.065,73.966,158.515,74.466z
		 M151.027,49.738c0-0.447-0.014-1.191-0.041-2.231c-0.03-1.037-0.072-2.197-0.126-3.49c-0.058-1.288-0.142-2.649-0.253-4.076
		c-0.113-1.431-0.21-2.776-0.294-4.039c-0.086-1.263-0.182-2.341-0.295-3.237s-0.227-1.485-0.336-1.766
		c-0.619,2.128-1.263,4.261-1.938,6.39c-0.67,2.132-1.303,4.277-1.892,6.433c-0.589,2.16-1.065,4.347-1.428,6.562
		c-0.366,2.218-0.548,4.445-0.548,6.687c0,0.335,0.055,0.689,0.169,1.051c0.112,0.367,0.223,0.689,0.335,0.969
		c0.449-0.39,0.982-0.995,1.599-1.806c0.615-0.815,1.249-1.671,1.893-2.568c0.643-0.896,1.248-1.793,1.81-2.69
		C150.241,51.028,150.693,50.3,151.027,49.738z"/>
	<path d="M184.759,25.176c-2.861,6.9-5.585,13.782-8.159,20.651c-2.588,6.868-5.025,13.864-7.325,20.986h0.254
		c0.226,0,0.417,0,0.588,0c0.227,0,0.418,0,0.589,0h0.254c0.779,0,1.737,0.013,2.86,0.041c1.123,0.027,2.204,0.157,3.238,0.377
		c1.034,0.226,1.95,0.589,2.73,1.095c0.787,0.508,1.26,1.233,1.431,2.19c0.116,1.061-0.171,2.04-0.841,2.942
		c-0.672,0.891-1.341,1.739-2.013,2.52c-0.507,0.508-1.149,1.165-1.938,1.979c-0.787,0.814-1.63,1.622-2.525,2.443
		c-0.896,0.808-1.793,1.575-2.688,2.309c-0.897,0.731-1.712,1.292-2.444,1.683c0.055,0,0.089-0.062,0.089-0.17
		c0-0.11-0.062-0.139-0.172-0.083c0.842-0.671,1.726-1.416,2.656-2.231c0.916-0.809,1.779-1.685,2.559-2.602
		c0.788-0.931,1.432-1.909,1.938-2.943c0.5-1.04,0.76-2.177,0.76-3.409c0-1.458-0.465-2.621-1.396-3.491
		c-0.917-0.869-2.108-1.301-3.573-1.301c-1.069,0-2.144,0.015-3.23,0.042c-1.096,0.025-2.096,0.259-2.991,0.711
		c-0.281,0.109-0.513,0.254-0.72,0.425c-0.191,0.165-0.341,0.301-0.457,0.416h-0.083c-0.062,0-0.116-0.027-0.171-0.088
		c2.862-7.01,5.626-14.138,8.282-21.4c2.669-7.263,5.12-14.593,7.365-21.996c-0.109,0.055-0.507,0.085-1.177,0.085
		c-0.615,0-1.349,0-2.191,0c-0.836,0-1.683,0-2.518,0c-0.788,0-1.35,0-1.685,0c-0.111,0-0.344,0.322-0.672,0.965
		c-0.343,0.647-0.691,1.417-1.054,2.314c-0.369,0.896-0.74,1.824-1.138,2.775c-0.396,0.955-0.698,1.711-0.923,2.272
		c-0.062-0.058-0.116-0.085-0.172-0.085s-0.082,0.027-0.082,0.085c-0.055-1.349-0.082-2.834-0.082-4.459
		c0-1.625-0.145-3.196-0.425-4.709c2.525-0.114,4.818-0.168,6.899-0.168c2.074,0,4.257,0.028,6.558,0.082
		C182.2,25.43,183.466,25.347,184.759,25.176z"/>
	<path d="M207.463,74.466c-0.335,0.116-0.669,0.158-1.006,0.13c-0.343-0.035-0.672-0.042-1.012-0.042
		c-0.672,0-1.343,0.007-2.013,0.042c-0.678,0.028-1.356-0.014-2.026-0.13c0-3.867-0.151-7.611-0.46-11.232
		c-0.309-3.614-0.61-7.354-0.883-11.226l-0.342-0.167c-1.678,2.916-3.376,5.691-5.087,8.326c-1.711,2.636-3.517,5.354-5.426,8.159
		l-0.418-0.165c0-2.471,0.184-4.928,0.546-7.364c0.364-2.438,0.843-4.836,1.432-7.19c0.59-2.356,1.26-4.71,2.02-7.064
		s1.499-4.682,2.225-6.982c0.226-0.673,0.493-1.557,0.801-2.648c0.309-1.095,0.616-2.228,0.926-3.409
		c0.313-1.177,0.574-2.31,0.801-3.405c0.225-1.091,0.335-1.975,0.335-2.648c0-0.952-0.22-1.684-0.672-2.188l5.888-0.085
		c0,1.123,0.042,3.042,0.122,5.764c0.09,2.721,0.22,5.818,0.384,9.294c0.164,3.478,0.39,7.119,0.671,10.932
		c0.28,3.816,0.575,7.361,0.884,10.645c0.309,3.279,0.663,6.078,1.054,8.405C206.595,72.543,207.019,73.966,207.463,74.466z
		 M199.983,49.738c0-0.447-0.014-1.191-0.042-2.231c-0.034-1.037-0.074-2.197-0.13-3.49c-0.06-1.288-0.144-2.649-0.253-4.076
		c-0.108-1.431-0.205-2.776-0.294-4.039c-0.089-1.263-0.185-2.341-0.295-3.237c-0.109-0.896-0.225-1.485-0.335-1.766
		c-0.623,2.128-1.267,4.261-1.937,6.39c-0.672,2.132-1.302,4.277-1.891,6.433c-0.588,2.16-1.067,4.347-1.431,6.562
		c-0.361,2.218-0.547,4.445-0.547,6.687c0,0.335,0.055,0.689,0.172,1.051c0.109,0.367,0.219,0.689,0.329,0.969
		c0.451-0.39,0.984-0.995,1.601-1.806c0.616-0.815,1.245-1.671,1.89-2.568c0.644-0.896,1.253-1.793,1.813-2.69
		C199.19,51.028,199.641,50.3,199.983,49.738z"/>
	<path d="M250.403,30.35c-0.253,2.381-0.467,5.172-0.63,8.368c-0.164,3.195-0.294,6.633-0.384,10.306
		c-0.082,3.672-0.122,7.19-0.122,10.554c0,3.314,0.026,6.312,0.082,9.002c0.054,2.69,0.144,4.683,0.26,5.975
		c-0.958,0.165-2.013,0.206-3.162,0.124c-1.15-0.082-2.196-0.041-3.149,0.122c0.37-1.341,0.665-3.011,0.877-5.003
		c0.212-1.991,0.355-4.045,0.438-6.181c0.082-2.132,0.139-4.22,0.164-6.266c0.027-2.049,0.069-3.827,0.117-5.344
		c0.055-1.287,0.103-2.718,0.13-4.289c0.026-1.57,0.054-3.169,0.082-4.795c0.026-1.625,0.041-3.224,0.041-4.794
		c0-1.567,0-2.999,0-4.289c-0.89,1.625-1.82,3.337-2.766,5.131c-0.951,1.793-1.985,3.59-3.107,5.382
		c-1.109,1.795-2.3,3.532-3.561,5.217c-1.259,1.681-2.641,3.165-4.146,4.455c-2.465-2.802-4.697-5.887-6.71-9.251
		c-2.011-3.364-3.688-6.813-5.022-10.345c-0.117,3.364-0.22,6.868-0.302,10.514c-0.083,3.645-0.138,7.248-0.164,10.808
		c-0.028,3.56-0.015,6.969,0.04,10.219c0.056,3.252,0.164,6.14,0.336,8.666l-5.551,0.082c0.163-2.074,0.335-4.642,0.507-7.694
		c0.165-3.059,0.295-6.324,0.376-9.801c0.089-3.478,0.157-7.023,0.212-10.641c0.056-3.618,0.084-7.023,0.084-10.22
		c0-1.852-0.015-3.7-0.041-5.551c-0.027-1.851-0.15-3.7-0.383-5.551l5.304,0.254c-0.116,0.334-0.129,0.688-0.049,1.051
		c0.091,0.366,0.104,0.715,0.049,1.05c-0.172,1.123-0.021,2.495,0.459,4.122c0.479,1.628,1.103,3.336,1.89,5.133
		c0.779,1.793,1.656,3.586,2.642,5.38c0.972,1.797,1.924,3.394,2.848,4.794c0.917,1.403,1.718,2.553,2.383,3.449
		c0.67,0.897,1.121,1.318,1.342,1.26c0.232,0,0.931-0.77,2.1-2.311c1.172-1.543,2.485-3.436,3.937-5.678
		c1.458-2.241,2.882-4.568,4.278-6.981c1.402-2.41,2.429-4.459,3.101-6.14c0.279-0.674,0.425-1.544,0.425-2.607
		c0-1.123-0.227-1.961-0.672-2.522c1.252,0,2.341,0.013,3.25,0.041c0.911,0.031,1.931-0.013,3.054-0.126l0.088,0.085
		C250.978,26.356,250.656,27.968,250.403,30.35z"/>
</g>
</svg>
