<?xml version="1.0" encoding="utf-8"?>
<!-- Generator: Adobe Illustrator 16.0.4, SVG Export Plug-In . SVG Version: 6.00 Build 0)  -->
<!DOCTYPE svg PUBLIC "-//W3C//DTD SVG 1.1//EN" "http://www.w3.org/Graphics/SVG/1.1/DTD/svg11.dtd">
<svg version="1.1" id="Layer_1" xmlns="http://www.w3.org/2000/svg" xmlns:xlink="http://www.w3.org/1999/xlink" x="0px" y="0px"
	 width="155.749px" height="44.543px" viewBox="69.667 39.849 155.749 44.543"
	 enable-background="new 69.667 39.849 155.749 44.543" xml:space="preserve">
<g>
	<path fill="#7A1823" d="M83.672,76.947c-0.251,0.087-0.503,0.119-0.757,0.098c-0.251-0.026-0.503-0.031-0.757-0.031
		c-0.503,0-1.009,0.005-1.512,0.031c-0.506,0.021-1.011-0.011-1.514-0.098c0-2.9-0.119-5.709-0.346-8.424
		c-0.233-2.711-0.454-5.517-0.665-8.42l-0.251-0.125c-1.26,2.188-2.534,4.269-3.817,6.244c-1.283,1.978-2.639,4.016-4.069,6.12
		l-0.315-0.124c0-1.854,0.136-3.695,0.41-5.523c0.272-1.828,0.631-3.627,1.073-5.393c0.442-1.768,0.945-3.532,1.515-5.299
		c0.567-1.766,1.124-3.511,1.671-5.236c0.166-0.505,0.367-1.168,0.598-1.986c0.231-0.821,0.462-1.67,0.696-2.557
		c0.231-0.883,0.432-1.732,0.598-2.554c0.167-0.818,0.251-1.481,0.251-1.986c0-0.714-0.167-1.263-0.503-1.641l4.415-0.064
		c0,0.842,0.031,2.282,0.095,4.323c0.064,2.04,0.159,4.363,0.284,6.971c0.126,2.607,0.293,5.339,0.503,8.198
		c0.21,2.862,0.431,5.521,0.663,7.983c0.231,2.459,0.495,4.559,0.791,6.304C83.02,75.505,83.336,76.572,83.672,76.947z
		 M78.058,58.401c0-0.335-0.01-0.894-0.03-1.673c-0.023-0.778-0.055-1.648-0.095-2.618c-0.043-0.966-0.105-1.987-0.189-3.058
		c-0.085-1.072-0.157-2.081-0.221-3.028c-0.064-0.947-0.136-1.756-0.221-2.428c-0.085-0.673-0.17-1.114-0.251-1.324
		c-0.465,1.596-0.947,3.195-1.453,4.792c-0.503,1.6-0.978,3.207-1.42,4.824c-0.441,1.621-0.798,3.261-1.07,4.922
		c-0.275,1.663-0.411,3.334-0.411,5.015c0,0.251,0.041,0.517,0.125,0.788c0.085,0.275,0.167,0.518,0.251,0.727
		c0.336-0.292,0.737-0.746,1.199-1.354c0.462-0.611,0.938-1.253,1.419-1.926s0.938-1.345,1.358-2.019
		C77.468,59.369,77.807,58.822,78.058,58.401z"/>
	<path fill="#7A1823" d="M95.043,51.331v1.473c0,1.797,0.041,3.679,0.128,5.647c0.082,1.965,0.179,3.966,0.285,5.995
		c0.107,2.033,0.236,4.047,0.388,6.033c0.146,1.987,0.308,3.881,0.477,5.679l5.457,0.005c0.3-1.371,0.446-2.444,0.446-3.604
		c0-1.15,0.021-2.049,0.067-2.69l0.253-0.062c0.727,1.284,1.466,2.567,2.213,3.851c0.747,1.283,1.553,2.013,2.408,3.249
		c-1.756-0.168-4.033-0.015-6.833-0.122c-2.798-0.108-5.766,0.076-8.884,0.076c0.341-0.385,0.557-0.83,0.639-1.344
		c0.087-0.515,0.131-1.131,0.131-1.859c-0.043-1.972-0.08-3.938-0.095-5.904c-0.023-1.968-0.056-3.957-0.097-5.965
		c-0.043-2.31-0.074-4.587-0.095-6.832c-0.023-2.249-0.077-4.523-0.161-6.833c-0.087-1.37-0.185-2.749-0.29-4.138
		c-0.105-1.389-0.203-2.768-0.291-4.136c3.638,0,1.674,0.023,3.638,0c0,0,0.189,0.312,0.215,0.831
		c0.023,0.519,0.103,3.165,0.063,4.747c-0.043,1.583-0.063,3.188-0.063,4.815"/>
	<path fill="#7A1823" d="M121.644,76.947c-0.252,0.087-0.503,0.119-0.757,0.098c-0.251-0.026-0.503-0.031-0.757-0.031
		c-0.503,0-1.008,0.005-1.512,0.031c-0.505,0.021-1.011-0.011-1.514-0.098c0-2.9-0.119-5.709-0.346-8.424
		c-0.233-2.711-0.454-5.517-0.665-8.42l-0.251-0.125c-1.261,2.188-2.534,4.269-3.817,6.244c-1.283,1.978-2.639,4.016-4.068,6.12
		l-0.316-0.124c0-1.854,0.136-3.695,0.411-5.523c0.272-1.828,0.631-3.627,1.073-5.393c0.442-1.768,0.944-3.532,1.514-5.299
		c0.568-1.766,1.124-3.511,1.671-5.236c0.167-0.505,0.367-1.168,0.598-1.986c0.231-0.821,0.462-1.67,0.695-2.557
		c0.232-0.883,0.432-1.732,0.598-2.554c0.167-0.818,0.251-1.481,0.251-1.986c0-0.714-0.167-1.263-0.503-1.641l4.415-0.064
		c0,0.842,0.031,2.282,0.095,4.323c0.064,2.04,0.159,4.363,0.284,6.971c0.125,2.607,0.293,5.339,0.503,8.198
		c0.21,2.862,0.431,5.521,0.662,7.983c0.231,2.459,0.496,4.559,0.79,6.304C120.991,75.505,121.308,76.572,121.644,76.947z
		 M116.029,58.401c0-0.335-0.011-0.894-0.031-1.673c-0.023-0.778-0.055-1.648-0.095-2.618c-0.043-0.966-0.105-1.987-0.189-3.058
		c-0.085-1.072-0.157-2.081-0.221-3.028c-0.063-0.947-0.136-1.756-0.221-2.428c-0.085-0.673-0.169-1.114-0.251-1.324
		c-0.464,1.596-0.947,3.195-1.453,4.792c-0.503,1.6-0.978,3.207-1.419,4.824c-0.441,1.621-0.798,3.261-1.07,4.922
		c-0.275,1.663-0.411,3.334-0.411,5.015c0,0.251,0.041,0.517,0.125,0.788c0.085,0.275,0.167,0.518,0.251,0.727
		c0.336-0.292,0.737-0.746,1.199-1.354c0.462-0.611,0.938-1.253,1.419-1.926c0.482-0.673,0.938-1.345,1.358-2.019
		C115.438,59.369,115.778,58.822,116.029,58.401z"/>
	<path fill="#7A1823" d="M139.244,40.485c-0.168,0.716-0.348,1.45-0.535,2.208c-0.19,0.757-0.327,1.493-0.411,2.207h-0.377v-0.442
		c0-0.713-0.339-1.291-1.012-1.732c-0.672-0.443-1.304-0.665-1.892-0.665c-0.462,0-0.913,0.118-1.355,0.35s-0.768,0.514-0.979,0.85
		c-0.674,1.138-1.208,2.482-1.609,4.037c-0.4,1.559-0.716,3.179-0.947,4.859c-0.23,1.682-0.387,3.332-0.472,4.952
		c-0.084,1.619-0.125,3.079-0.125,4.384c0,0.883,0.01,1.882,0.031,2.995c0.021,1.117,0.095,2.231,0.221,3.348
		c0.126,1.109,0.326,2.177,0.601,3.184c0.272,1.005,0.683,1.867,1.229,2.587c0.421,0.544,0.798,0.861,1.134,0.944
		c0.337,0.081,0.822,0.122,1.453,0.122c0.208,0,0.388-0.061,0.534-0.184c0.149-0.128,0.265-0.211,0.35-0.257
		c0.082,0,0.095,0.057,0.03,0.163c-0.064,0.103-0.054,0.113,0.031,0.031c-0.757,0.756-1.556,1.479-2.398,2.178
		c-0.841,0.687-1.745,1.247-2.71,1.668h-0.315c-1.137-1.598-1.925-3.354-2.367-5.268c-0.441-1.915-0.662-3.835-0.662-5.773
		c0-1.555,0.051-3.09,0.157-4.605c0.106-1.514,0.244-3.025,0.411-4.54c0.125-1.431,0.295-2.934,0.505-4.511
		c0.21-1.578,0.526-3.101,0.945-4.573c0.421-1.472,0.999-2.87,1.735-4.194c0.737-1.326,1.715-2.473,2.934-3.439
		c0.506-0.418,1.094-0.768,1.766-1.039c0.673-0.275,1.346-0.411,2.02-0.411c0.209,0,0.568,0.054,1.071,0.156
		C138.739,40.18,139.076,40.318,139.244,40.485z"/>
	<path fill="#7A1823" d="M155.772,76.947c-0.258,0.087-0.504,0.119-0.759,0.098c-0.252-0.026-0.505-0.031-0.761-0.031
		c-0.503,0-1.006,0.005-1.509,0.031c-0.506,0.021-1.012-0.011-1.515-0.098c0-2.9-0.118-5.709-0.347-8.424
		c-0.234-2.711-0.454-5.517-0.665-8.42l-0.252-0.125c-1.259,2.188-2.533,4.269-3.816,6.244c-1.283,1.978-2.639,4.016-4.068,6.12
		l-0.315-0.124c0-1.854,0.136-3.695,0.41-5.523c0.272-1.828,0.631-3.627,1.073-5.393c0.441-1.768,0.944-3.532,1.514-5.299
		c0.568-1.766,1.125-3.511,1.671-5.236c0.167-0.505,0.367-1.168,0.599-1.986c0.23-0.821,0.462-1.67,0.695-2.557
		c0.231-0.883,0.431-1.732,0.598-2.554c0.167-0.818,0.253-1.481,0.253-1.986c0-0.714-0.167-1.263-0.504-1.641l4.416-0.064
		c0,0.842,0.03,2.282,0.095,4.323c0.064,2.04,0.159,4.363,0.283,6.971c0.127,2.607,0.294,5.339,0.505,8.198
		c0.21,2.862,0.428,5.521,0.664,7.983c0.227,2.459,0.493,4.559,0.79,6.304C155.115,75.505,155.434,76.572,155.772,76.947z
		 M150.156,58.401c0-0.335-0.011-0.894-0.031-1.673c-0.022-0.778-0.054-1.648-0.095-2.618c-0.043-0.966-0.105-1.987-0.189-3.058
		c-0.085-1.072-0.157-2.081-0.221-3.028c-0.064-0.947-0.136-1.756-0.221-2.428c-0.085-0.673-0.17-1.114-0.252-1.324
		c-0.465,1.596-0.947,3.195-1.453,4.792c-0.503,1.6-0.978,3.207-1.419,4.824c-0.441,1.621-0.799,3.261-1.07,4.922
		c-0.275,1.663-0.411,3.334-0.411,5.015c0,0.251,0.041,0.517,0.127,0.788c0.084,0.275,0.167,0.518,0.251,0.727
		c0.337-0.292,0.736-0.746,1.199-1.354c0.461-0.611,0.937-1.253,1.419-1.926s0.937-1.345,1.357-2.019
		C149.566,59.369,149.905,58.822,150.156,58.401z"/>
	<path fill="#7A1823" d="M175.455,39.979c-2.146,5.175-4.188,10.337-6.119,15.489c-1.941,5.15-3.77,10.397-5.494,15.739h0.19
		c0.169,0,0.312,0,0.441,0c0.17,0,0.313,0,0.441,0h0.19c0.584,0,1.303,0.01,2.146,0.03c0.842,0.021,1.652,0.118,2.429,0.283
		c0.775,0.169,1.462,0.441,2.048,0.821c0.59,0.381,0.944,0.925,1.072,1.643c0.088,0.796-0.128,1.53-0.63,2.207
		c-0.504,0.668-1.006,1.304-1.51,1.89c-0.38,0.381-0.862,0.873-1.453,1.483c-0.591,0.611-1.223,1.217-1.895,1.833
		c-0.672,0.605-1.345,1.182-2.016,1.731c-0.674,0.548-1.284,0.969-1.834,1.262c0.041,0,0.067-0.046,0.067-0.128
		s-0.047-0.104-0.129-0.062c0.631-0.503,1.294-1.062,1.992-1.674c0.687-0.606,1.334-1.264,1.919-1.951
		c0.591-0.698,1.073-1.432,1.453-2.208c0.375-0.779,0.569-1.632,0.569-2.557c0-1.094-0.349-1.966-1.047-2.618
		c-0.688-0.651-1.582-0.976-2.681-0.976c-0.802,0-1.607,0.011-2.423,0.031c-0.821,0.02-1.571,0.194-2.243,0.533
		c-0.211,0.082-0.385,0.19-0.54,0.318c-0.144,0.124-0.255,0.227-0.343,0.312h-0.062c-0.047,0-0.088-0.021-0.129-0.066
		c2.147-5.257,4.22-10.603,6.212-16.05c2.002-5.447,3.84-10.945,5.524-16.497c-0.082,0.041-0.381,0.064-0.883,0.064
		c-0.462,0-1.012,0-1.644,0c-0.627,0-1.262,0-1.889,0c-0.591,0-1.012,0-1.263,0c-0.084,0-0.258,0.241-0.504,0.724
		c-0.258,0.485-0.519,1.062-0.791,1.735c-0.276,0.672-0.555,1.368-0.853,2.081c-0.298,0.716-0.524,1.283-0.692,1.704
		c-0.046-0.043-0.087-0.064-0.129-0.064s-0.062,0.021-0.062,0.064c-0.041-1.012-0.062-2.125-0.062-3.344
		c0-1.22-0.108-2.397-0.318-3.532c1.894-0.085,3.613-0.126,5.174-0.126c1.556,0,3.193,0.021,4.919,0.062
		C173.535,40.17,174.485,40.108,175.455,39.979z"/>
	<path fill="#7A1823" d="M192.483,76.947c-0.251,0.087-0.502,0.119-0.755,0.098c-0.257-0.026-0.504-0.031-0.759-0.031
		c-0.504,0-1.007,0.005-1.509,0.031c-0.509,0.021-1.018-0.011-1.521-0.098c0-2.9-0.113-5.709-0.345-8.424
		c-0.231-2.711-0.458-5.517-0.662-8.42l-0.256-0.125c-1.259,2.188-2.532,4.269-3.815,6.244c-1.283,1.978-2.638,4.016-4.069,6.12
		l-0.313-0.124c0-1.854,0.138-3.695,0.409-5.523c0.273-1.828,0.632-3.627,1.074-5.393c0.442-1.768,0.944-3.532,1.515-5.299
		c0.569-1.766,1.124-3.511,1.668-5.236c0.169-0.505,0.37-1.168,0.601-1.986c0.231-0.821,0.462-1.67,0.694-2.557
		c0.235-0.883,0.431-1.732,0.601-2.554c0.169-0.818,0.251-1.481,0.251-1.986c0-0.714-0.164-1.263-0.504-1.641l4.416-0.064
		c0,0.842,0.031,2.282,0.092,4.323c0.067,2.04,0.165,4.363,0.288,6.971s0.292,5.339,0.503,8.198c0.21,2.862,0.432,5.521,0.663,7.983
		c0.231,2.459,0.497,4.559,0.79,6.304C191.832,75.505,192.15,76.572,192.483,76.947z M186.873,58.401
		c0-0.335-0.011-0.894-0.031-1.673c-0.026-0.778-0.056-1.648-0.098-2.618c-0.045-0.966-0.107-1.987-0.189-3.058
		c-0.082-1.072-0.154-2.081-0.221-3.028s-0.139-1.756-0.222-2.428c-0.082-0.673-0.168-1.114-0.251-1.324
		c-0.467,1.596-0.95,3.195-1.452,4.792c-0.504,1.6-0.977,3.207-1.418,4.824c-0.441,1.621-0.801,3.261-1.073,4.922
		c-0.271,1.663-0.41,3.334-0.41,5.015c0,0.251,0.041,0.517,0.129,0.788c0.082,0.275,0.164,0.518,0.247,0.727
		c0.338-0.292,0.738-0.746,1.2-1.354c0.462-0.611,0.934-1.253,1.417-1.926s0.94-1.345,1.36-2.019
		C186.278,59.369,186.616,58.822,186.873,58.401z"/>
	<path fill="#7A1823" d="M224.687,43.86c-0.189,1.786-0.35,3.879-0.472,6.276c-0.123,2.396-0.221,4.975-0.288,7.729
		c-0.062,2.754-0.092,5.393-0.092,7.916c0,2.485,0.02,4.733,0.062,6.751c0.04,2.018,0.107,3.512,0.195,4.481
		c-0.719,0.123-1.51,0.154-2.372,0.093s-1.647-0.031-2.362,0.091c0.278-1.005,0.499-2.258,0.658-3.752
		c0.159-1.493,0.267-3.033,0.328-4.635c0.062-1.6,0.104-3.165,0.123-4.699c0.021-1.537,0.052-2.871,0.088-4.008
		c0.041-0.966,0.077-2.039,0.098-3.217c0.02-1.178,0.04-2.377,0.062-3.597c0.02-1.219,0.03-2.418,0.03-3.596
		c0-1.175,0-2.249,0-3.217c-0.667,1.22-1.365,2.503-2.074,3.849c-0.713,1.345-1.489,2.692-2.33,4.036
		c-0.832,1.347-1.726,2.649-2.671,3.913c-0.944,1.26-1.98,2.373-3.109,3.341c-1.849-2.102-3.523-4.415-5.033-6.938
		c-1.508-2.523-2.766-5.109-3.767-7.759c-0.088,2.523-0.165,5.151-0.227,7.886c-0.062,2.733-0.103,5.436-0.123,8.105
		s-0.011,5.227,0.03,7.664c0.042,2.439,0.123,4.605,0.252,6.5l-4.163,0.062c0.122-1.556,0.251-3.481,0.38-5.771
		c0.124-2.295,0.222-4.744,0.282-7.352c0.066-2.607,0.118-5.268,0.159-7.98c0.042-2.713,0.062-5.268,0.062-7.664
		c0-1.39-0.011-2.775-0.03-4.164c-0.021-1.388-0.113-2.774-0.287-4.163l3.978,0.19c-0.087,0.251-0.097,0.517-0.036,0.788
		c0.067,0.274,0.077,0.536,0.036,0.788c-0.129,0.842-0.016,1.871,0.345,3.091c0.358,1.222,0.826,2.502,1.417,3.85
		c0.584,1.346,1.242,2.69,1.981,4.036c0.729,1.348,1.442,2.545,2.136,3.595c0.688,1.053,1.288,1.915,1.787,2.587
		c0.502,0.674,0.841,0.989,1.006,0.945c0.175,0,0.698-0.577,1.575-1.733c0.879-1.157,1.863-2.576,2.952-4.258
		c1.094-1.681,2.161-3.427,3.209-5.236c1.052-1.808,1.821-3.345,2.325-4.604c0.209-0.506,0.318-1.158,0.318-1.956
		c0-0.842-0.17-1.471-0.504-1.892c0.939,0,1.756,0.01,2.438,0.031c0.684,0.023,1.448-0.011,2.29-0.096l0.066,0.064
		C225.119,40.865,224.877,42.074,224.687,43.86z"/>
</g>
</svg>
