<?xml version="1.0" encoding="utf-8"?>
<!-- Generator: Adobe Illustrator 16.0.4, SVG Export Plug-In . SVG Version: 6.00 Build 0)  -->
<!DOCTYPE svg PUBLIC "-//W3C//DTD SVG 1.1//EN" "http://www.w3.org/Graphics/SVG/1.1/DTD/svg11.dtd">
<svg version="1.1" id="Layer_1" xmlns="http://www.w3.org/2000/svg" xmlns:xlink="http://www.w3.org/1999/xlink" x="0px" y="0px"
	 width="224.615px" height="81.425px" viewBox="0 -0.001 224.615 81.425" enable-background="new 0 -0.001 224.615 81.425"
	 xml:space="preserve">
<g>
	<g>
		<path d="M17.746,17.981c0,6.329-1.046,12.032-3.139,17.111c-2.098,5.078-5.515,9.78-10.265,14.113
			c-0.333,7.765-0.583,15.543-0.75,23.308c0,0.501-0.04,1.234-0.125,2.208c-0.081,0.97-0.18,1.952-0.292,2.955
			c-0.112,1.165-0.221,2.385-0.332,3.666c0,0.054-0.057,0.068-0.165,0.039c-0.114-0.026-0.167-0.014-0.167,0.042
			c-0.166-5.102-0.265-10.239-0.292-15.4C2.189,60.86,2.201,55.695,2.26,50.532c-0.333,0.172-0.614,0.367-0.834,0.584
			c-0.276,0.169-0.527,0.326-0.747,0.461c-0.224,0.136-0.416,0.257-0.583,0.373c-0.113,0.062-0.126,0.046-0.042-0.043
			c0.082-0.078,0.067-0.127-0.043-0.127l2.164-2.072c0-2.33,0-4.971,0-7.914c0-2.998,0.099-6.09,0.292-9.282
			c0.197-3.192,0.529-6.41,1.002-9.658c0.473-3.245,1.169-6.311,2.088-9.201c0.916-2.884,2.111-5.496,3.585-7.826
			c1.474-2.331,3.296-4.217,5.465-5.661c0.846,3.052,1.585,5.996,2.204,8.825C17.434,11.824,17.746,14.821,17.746,17.981z
			 M13.416,22.728c0-0.887-0.042-2.12-0.124-3.703c-0.082-1.582-0.239-3.208-0.458-4.871c-0.224-1.667-0.528-3.218-0.915-4.662
			c-0.389-1.444-0.89-2.47-1.5-3.082C9.643,6.745,8.975,7.548,8.424,8.825c-0.556,1.278-1.031,2.805-1.416,4.581
			c-0.39,1.775-0.694,3.702-0.919,5.786c-0.221,2.08-0.414,4.079-0.583,5.993c-0.166,1.913-0.278,3.665-0.332,5.247
			c-0.053,1.578-0.111,2.76-0.166,3.536c-0.111,1.944-0.236,3.913-0.375,5.911c-0.139,1.999-0.207,3.969-0.207,5.911v1.417
			c0.054,0,0.304-0.251,0.748-0.752c0.444-0.498,0.915-1.08,1.417-1.746c0.497-0.666,0.97-1.319,1.417-1.955
			c0.444-0.638,0.718-1.099,0.83-1.376c0.833-1.718,1.541-3.301,2.124-4.746c0.583-1.44,1.053-2.871,1.417-4.287
			c0.358-1.415,0.624-2.886,0.79-4.414C13.336,26.408,13.416,24.674,13.416,22.728z"/>
		<path d="M4.439,47.872c3.102,7.135,6.285,14.222,9.54,21.282c0.216,0.446,0.504,1.124,0.853,2.039
			c0.352,0.908,0.695,1.836,1.033,2.783c0.411,1.099,0.847,2.243,1.307,3.443c0.024,0.047-0.022,0.081-0.131,0.108
			c-0.111,0.025-0.156,0.054-0.131,0.108c-2.385-4.519-4.723-9.094-7.009-13.714c-2.29-4.637-4.54-9.282-6.75-13.943L4.439,47.872z"
			/>
	</g>
	<path d="M42.694,49.87c-0.333,0.11-0.665,0.15-1.001,0.123c-0.331-0.028-0.663-0.042-0.999-0.042c-0.664,0-1.332,0.014-1.997,0.042
		c-0.666,0.026-1.333-0.014-1.997-0.123c0-3.826-0.156-7.533-0.458-11.113c-0.309-3.582-0.599-7.285-0.877-11.115l-0.333-0.166
		c-1.665,2.887-3.344,5.634-5.037,8.242c-1.694,2.608-3.482,5.302-5.37,8.075l-0.417-0.166c0-2.441,0.18-4.87,0.543-7.286
		c0.358-2.412,0.833-4.788,1.417-7.118c0.582-2.331,1.246-4.662,1.998-6.993c0.75-2.331,1.484-4.635,2.206-6.912
		c0.221-0.667,0.484-1.542,0.79-2.623c0.304-1.084,0.609-2.205,0.918-3.374c0.305-1.165,0.57-2.286,0.789-3.371
		c0.222-1.082,0.333-1.954,0.333-2.622c0-0.941-0.22-1.666-0.665-2.165l5.827-0.084c0,1.111,0.042,3.011,0.126,5.705
		c0.083,2.694,0.208,5.76,0.375,9.201c0.166,3.442,0.386,7.047,0.664,10.82c0.279,3.777,0.568,7.287,0.875,10.532
		c0.305,3.249,0.653,6.023,1.043,8.326C41.833,47.972,42.249,49.369,42.694,49.87z M35.284,25.395c0-0.444-0.015-1.178-0.042-2.208
		c-0.031-1.026-0.071-2.174-0.125-3.456c-0.058-1.273-0.139-2.622-0.25-4.034c-0.113-1.417-0.207-2.748-0.292-3.999
		c-0.085-1.25-0.179-2.316-0.291-3.205c-0.112-0.888-0.224-1.47-0.333-1.748c-0.612,2.107-1.249,4.217-1.917,6.325
		c-0.664,2.11-1.291,4.234-1.873,6.369c-0.583,2.137-1.055,4.302-1.415,6.493c-0.361,2.196-0.542,4.401-0.542,6.619
		c0,0.333,0.054,0.681,0.167,1.041c0.111,0.362,0.22,0.68,0.332,0.959c0.444-0.386,0.972-0.986,1.582-1.79
		c0.611-0.805,1.237-1.652,1.875-2.54c0.636-0.888,1.236-1.775,1.792-2.663C34.506,26.671,34.951,25.949,35.284,25.395z"/>
	<path d="M72.793,1.623c-0.139,0.528-0.238,1.152-0.292,1.874c-0.224,3.276-0.39,6.48-0.503,9.617
		c-0.111,3.137-0.193,6.271-0.249,9.408c-0.054,3.137-0.082,6.285-0.082,9.449c0,3.11,0,6.301,0,9.574
		c0,1.276,0.028,2.707,0.082,4.288c0.058,1.586,0.306,2.98,0.752,4.2c-0.668,0-1.335-0.039-2-0.121
		c-0.667-0.08-1.361-0.121-2.083-0.121c-0.663,0-1.331,0.081-1.994,0.243c0.273-2.94,0.457-5.849,0.539-8.735
		c0.085-2.887,0.18-5.772,0.292-8.659c0.111-2.33,0.178-4.621,0.208-6.87c0.028-2.246-0.122,1.067-0.064-1.263
		c-0.778-0.336-10.553-9.35-11.05-9.516c0,0.498-0.014,0.985-0.04,1.457c-0.031,0.472-0.045,0.956-0.045,1.457
		c-0.112,3.994-0.264,8.171-0.458,12.532c-0.194,4.356-0.292,8.533-0.292,12.528c0,0.331,0.013,0.859,0.042,1.583
		c0.031,0.72,0.085,1.455,0.168,2.204c0.082,0.751,0.221,1.443,0.414,2.08c0.196,0.638,0.429,1.043,0.707,1.204
		c-0.775,0-1.568-0.013-2.371-0.039c-0.807-0.028-1.596-0.041-2.372-0.041c-0.282,0-0.557,0.027-0.834,0.08
		c-0.277,0.056-0.554,0.145-0.832,0.259c0.667-6.219,1.11-12.451,1.332-18.694c0.224-6.247,0.277-12.476,0.167-18.692L51.853,5.83
		c0-0.941-0.085-1.747-0.25-2.413c-0.166-0.666-0.39-1.303-0.667-1.917l5.995-0.332c0,2.11-0.057,4.235-0.165,6.368
		c-0.112,2.138-0.225,4.29-0.333,6.455c1.718,0.61,9.187,8.821,10.966,9.431l0.271-8.35c0-0.722,0.027-1.61,0.086-2.663
		c0.053-1.054,0.081-1.971,0.081-2.748c0.057-1.443,0.026-2.859-0.081-4.248c-0.113-1.386-0.28-2.802-0.501-4.245l5.995-0.497
		C73.083,0.779,72.927,1.099,72.793,1.623z"/>
	<path d="M123.452,22.894c0,2.5-0.306,4.942-0.916,7.328c-0.612,2.389-1.402,4.733-2.375,7.035
		c-0.973,2.305-2.053,4.549-3.244,6.741c-1.198,2.196-2.375,4.348-3.541,6.455c-0.165-0.11-0.278-0.251-0.332-0.422
		c-0.058-0.161-0.138-0.324-0.25-0.493c-0.947-1.835-1.789-3.527-2.537-5.078c-0.752-1.556-1.39-3.124-1.917-4.705
		c-0.529-1.583-0.929-3.232-1.206-4.953c-0.278-1.721-0.417-3.636-0.417-5.745c0-2.552,0.221-5.146,0.668-7.786
		c0.442-2.635,1.093-5.204,1.954-7.7c0.859-2.497,1.944-4.898,3.249-7.202s2.814-4.424,4.535-6.37
		c0.887,1.332,1.721,2.985,2.497,4.953c0.779,1.972,1.46,4.011,2.043,6.122c0.581,2.107,1.039,4.205,1.372,6.285
		s0.502,3.954,0.502,5.62L123.452,22.894z M119.62,33.636c0.278-2.109,0.39-4.4,0.336-6.87c-0.058-2.47-0.292-4.966-0.708-7.493
		c-0.416-2.524-0.998-5.037-1.748-7.533c-0.746-2.498-1.651-4.8-2.707-6.91c-1.497,2.612-2.705,5.552-3.62,8.824
		c-0.915,3.276-1.375,6.386-1.375,9.326c0,1.444,0.098,3.177,0.29,5.204c0.197,2.026,0.517,4.078,0.96,6.162
		c0.443,2.08,0.998,4.093,1.667,6.033c0.663,1.946,1.47,3.528,2.412,4.745c0.334-0.551,0.735-1.356,1.21-2.413
		c0.47-1.055,0.94-2.148,1.412-3.287c0.471-1.139,0.877-2.236,1.21-3.289C119.287,35.08,119.508,34.247,119.62,33.636z"/>
	<path d="M165.622,6.202c-0.25,2.358-0.455,5.12-0.624,8.284c-0.168,3.164-0.292,6.565-0.373,10.2s-0.128,7.117-0.128,10.448
		c0,3.275,0.027,6.241,0.088,8.909c0.055,2.663,0.136,4.637,0.245,5.907c-0.942,0.17-1.979,0.211-3.116,0.123
		c-1.139-0.081-2.184-0.042-3.133,0.127c0.374-1.334,0.664-2.98,0.875-4.953c0.209-1.968,0.359-4.007,0.433-6.117
		c0.082-2.111,0.13-4.178,0.157-6.203c0.026-2.026,0.066-3.788,0.122-5.288c0.054-1.273,0.096-2.69,0.122-4.245
		c0.026-1.556,0.053-3.137,0.088-4.748c0.027-1.608,0.04-3.191,0.04-4.745c0-1.553,0-2.967,0-4.245
		c-0.888,1.609-1.795,3.304-2.736,5.079c-0.942,1.775-1.966,3.553-3.068,5.328c-1.112,1.775-2.284,3.496-3.53,5.163
		c-1.24,1.664-2.608,3.133-4.106,4.41c-2.432-2.773-4.648-5.826-6.64-9.157c-1.992-3.33-3.652-6.744-4.981-10.241
		c-0.106,3.33-0.202,6.799-0.285,10.407c-0.086,3.607-0.14,7.175-0.175,10.698c-0.026,3.524-0.012,6.898,0.047,10.115
		c0.056,3.219,0.171,6.078,0.334,8.571l-5.495,0.089c0.17-2.053,0.333-4.593,0.495-7.619c0.176-3.026,0.298-6.258,0.38-9.699
		c0.08-3.441,0.148-6.952,0.21-10.533c0.054-3.58,0.081-6.951,0.081-10.115c0-1.833-0.015-3.662-0.041-5.494
		c-0.034-1.833-0.156-3.663-0.373-5.496l5.245,0.25c-0.116,0.333-0.121,0.681-0.043,1.04c0.083,0.362,0.097,0.708,0.043,1.04
		c-0.17,1.111-0.015,2.469,0.452,4.079c0.47,1.612,1.092,3.304,1.864,5.083c0.78,1.774,1.652,3.549,2.615,5.325
		c0.969,1.778,1.911,3.361,2.819,4.747c0.921,1.388,1.705,2.527,2.371,3.414c0.665,0.888,1.105,1.305,1.329,1.248
		c0.216,0,0.908-0.762,2.072-2.286c1.158-1.528,2.461-3.403,3.903-5.621c1.435-2.219,2.846-4.522,4.228-6.911
		c1.384-2.385,2.412-4.415,3.076-6.078c0.271-0.667,0.407-1.527,0.407-2.582c0-1.111-0.217-1.941-0.664-2.498
		c1.246,0,2.326,0.015,3.226,0.042c0.909,0.031,1.911-0.014,3.022-0.125l0.08,0.084C166.19,2.25,165.872,3.846,165.622,6.202z"/>
	<path d="M178.528,31.014c-0.143,3.967-0.215,7.951-0.215,11.945c0,0.331,0.014,0.859,0.04,1.582
		c0.032,0.721,0.087,1.457,0.175,2.205c0.082,0.752,0.218,1.444,0.407,2.08c0.202,0.639,0.434,1.044,0.71,1.205
		c-0.778,0-1.563-0.013-2.37-0.039c-0.809-0.029-1.594-0.042-2.374-0.042c-0.275,0-0.555,0.027-0.833,0.081
		c-0.277,0.055-0.555,0.143-0.833,0.259c0.671-6.221,1.063-12.451,1.205-18.694c0.142-6.247,0.237-12.477,0.291-18.693l-0.08-7.077
		c-0.109-0.942-0.223-1.748-0.333-2.413c-0.114-0.667-0.305-1.304-0.59-1.917l6.003-0.332c0,2.832-0.101,5.62-0.297,8.368
		L178.528,31.014z"/>
	<path d="M205.549,1.082c-2.833,6.83-5.528,13.642-8.076,20.442c-2.555,6.799-4.974,13.723-7.243,20.773h0.251
		c0.215,0,0.414,0,0.583,0c0.215,0,0.412,0,0.581,0h0.244c0.78,0,1.722,0.014,2.831,0.04c1.112,0.026,2.184,0.154,3.211,0.373
		c1.023,0.224,1.926,0.582,2.705,1.083c0.778,0.498,1.246,1.224,1.416,2.165c0.109,1.056-0.169,2.029-0.834,2.911
		c-0.67,0.894-1.334,1.722-1.999,2.5c-0.501,0.5-1.138,1.152-1.911,1.959c-0.785,0.8-1.611,1.611-2.506,2.412
		c-0.882,0.807-1.776,1.572-2.657,2.29c-0.893,0.718-1.694,1.273-2.418,1.665c0.054,0,0.087-0.053,0.087-0.162
		c0-0.115-0.061-0.141-0.169-0.088c0.834-0.663,1.7-1.401,2.622-2.201c0.915-0.813,1.761-1.666,2.535-2.589
		c0.786-0.907,1.423-1.883,1.924-2.913c0.494-1.023,0.745-2.148,0.745-3.367c0-1.444-0.462-2.596-1.376-3.456
		S194,43.63,192.558,43.63c-1.058,0-2.12,0.013-3.203,0.04c-1.085,0.029-2.075,0.263-2.956,0.707
		c-0.284,0.111-0.517,0.249-0.711,0.417c-0.198,0.165-0.346,0.304-0.454,0.417h-0.081c-0.062,0-0.114-0.027-0.177-0.087
		c2.833-6.937,5.57-13.995,8.206-21.185c2.637-7.188,5.062-14.445,7.284-21.772c-0.11,0.054-0.503,0.085-1.165,0.085
		c-0.61,0-1.329,0-2.168,0c-0.828,0-1.66,0-2.494,0c-0.774,0-1.329,0-1.666,0c-0.11,0-0.333,0.318-0.665,0.955
		c-0.332,0.641-0.676,1.403-1.042,2.29c-0.36,0.887-0.731,1.806-1.126,2.747c-0.385,0.946-0.691,1.695-0.906,2.25
		c-0.062-0.058-0.114-0.085-0.171-0.085c-0.062,0-0.087,0.027-0.087,0.085c-0.055-1.334-0.081-2.805-0.081-4.415
		c0-1.608-0.135-3.165-0.414-4.661c2.501-0.112,4.771-0.167,6.822-0.167c2.061,0,4.223,0.027,6.499,0.082
		C203.022,1.332,204.275,1.25,205.549,1.082z"/>
	<path d="M224.615,21.146c-0.446,1.11-0.934,2.222-1.462,3.33c-0.522,1.11-0.923,2.278-1.208,3.5h-0.324
		c-0.114-0.779-0.231-1.667-0.338-2.667c-0.11-1-0.279-1.859-0.503-2.582c-1.111-0.108-2.215-0.165-3.327-0.165
		c-1.048,0-2.302,0.084-3.745,0.25c-0.108,0.944-0.196,1.984-0.249,3.119c-0.057,1.139-0.082,2.182-0.082,3.125
		c0,0.778,0.025,1.818,0.082,3.122c0.054,1.305,0.155,2.636,0.291,3.994c0.136,1.363,0.317,2.68,0.542,3.957
		c0.218,1.278,0.477,2.245,0.746,2.913c0.284,0.665,0.739,1.247,1.382,1.749c0.637,0.497,1.34,0.748,2.113,0.748
		c0.501,0,0.987-0.18,1.463-0.543c0.476-0.358,0.902-0.676,1.289-0.955l0.25,0.168c-0.055,0.218-0.4,0.662-1.038,1.33
		c-0.643,0.667-1.375,1.348-2.208,2.039c-0.834,0.691-1.61,1.322-2.329,1.87c-0.72,0.556-1.193,0.841-1.418,0.841
		c-0.615,0-1.123-0.381-1.537-1.125c-0.422-0.752-0.78-1.694-1.084-2.833c-0.312-1.139-0.557-2.414-0.747-3.829
		c-0.203-1.418-0.352-2.777-0.46-4.08c-0.115-1.305-0.198-2.483-0.251-3.54c-0.062-1.055-0.088-1.803-0.088-2.246
		c0-1.887,0.056-3.925,0.168-6.121c0.116-2.192,0.295-4.397,0.543-6.617c0.251-2.219,0.596-4.373,1.037-6.455
		c0.446-2.079,1.056-3.979,1.836-5.7c0.224-0.556,0.543-1.169,0.955-1.832c0.419-0.668,0.887-1.318,1.416-1.959
		c0.527-0.636,1.098-1.206,1.708-1.704c0.609-0.502,1.219-0.834,1.835-1c0.828-0.277,1.688-0.361,2.573-0.25l1.417,0.082
		c-0.278,1.111-0.534,2.165-0.792,3.165c-0.244,1-0.597,2.058-1.035,3.164l-0.251-0.081c0-2.11-0.692-3.165-2.08-3.165
		c-0.726,0-1.376,0.25-1.959,0.749c-0.582,0.497-1.017,1.026-1.287,1.582c-0.169,0.332-0.407,1.152-0.711,2.456
		c-0.306,1.304-0.583,2.72-0.834,4.245c-0.244,1.528-0.488,2.972-0.705,4.33c-0.223,1.361-0.338,2.29-0.338,2.791
		c0,0.221,0,0.444,0,0.665c0,0.166-0.027,0.39-0.082,0.667c1.943,0,3.754-0.085,5.414-0.251
		C220.867,21.232,222.67,21.146,224.615,21.146z"/>
	<g>
		<path d="M84.917,10.808c0.051-0.783,0.081-1.566,0.081-2.347c0-0.779,0-1.559,0-2.338c0-0.724-0.043-1.603-0.125-2.636
			c-0.082-1.034-0.407-1.821-0.962-2.38c0.949-0.113,1.907-0.183,2.887-0.214c0.976-0.027,1.937-0.095,2.886-0.207L88.897,17.61
			c0.835-0.108,1.575-0.143,2.218-0.084c0.636,0.056,1.324,0.084,2.046,0.084c0.895,0,1.724,0.179,2.507,0.542
			c0.782,0.366,1.449,0.837,2.012,1.424c0.551,0.586,1.003,1.239,1.335,1.961c0.331,0.724,0.5,1.449,0.5,2.178
			c0.058,0.78-0.152,1.738-0.626,2.882c-0.475,1.146-1.27,2.107-2.385,2.887c-0.836,0.612-1.812,1.002-2.924,1.168
			c-1.117,0.166-2.175,0.227-3.177,0.166c-0.111,0-0.379,0.016-0.795,0.043c-0.418,0.028-0.932-0.014-1.544-0.121
			c-0.112,2.171-0.058,4.509-0.058,6.738c0,2.172,0.058,4.304,0.173,6.393c0.108,2.094,0.275,4.061,0.498,5.896l-5.434-0.078
			c0.335-4.296,0.596-8.56,0.796-12.797c0.189-4.237,0.346-8.527,0.454-12.876 M84.494,23.511c0.058-1.668,0.115-3.344,0.169-5.014
			c0.055-1.674,0.113-3.344,0.169-5.021l0.085-2.257 M95.171,23.965c0-1.951-0.592-3.414-1.779-4.389
			c-1.182-0.977-2.706-1.46-4.577-1.46c-0.058,0.112-0.111,0.708-0.169,1.791c-0.055,1.088-0.122,2.304-0.207,3.638
			c-0.082,1.337-0.157,2.609-0.21,3.807c-0.057,1.199-0.085,1.938-0.085,2.216v0.752c0.606,0,1.312-0.013,2.111-0.044
			c0.796-0.028,1.444-0.179,1.938-0.461c1.104-0.61,1.877-1.391,2.313-2.34C94.951,26.53,95.171,25.357,95.171,23.965z"/>
	</g>
</g>
</svg>
