<?xml version="1.0" encoding="utf-8"?>
<!-- Generator: Adobe Illustrator 16.0.4, SVG Export Plug-In . SVG Version: 6.00 Build 0)  -->
<!DOCTYPE svg PUBLIC "-//W3C//DTD SVG 1.1//EN" "http://www.w3.org/Graphics/SVG/1.1/DTD/svg11.dtd">
<svg version="1.1" id="Layer_1" xmlns="http://www.w3.org/2000/svg" xmlns:xlink="http://www.w3.org/1999/xlink" x="0px" y="0px"
	 width="168.461px" height="61.068px" viewBox="28.076 20.355 168.461 61.068"
	 enable-background="new 28.076 20.355 168.461 61.068" xml:space="preserve">
<g>
	<g>
		<path fill="#7A1823" d="M41.386,33.842c0,4.747-0.785,9.024-2.354,12.834c-1.574,3.809-4.137,7.335-7.699,10.585
			c-0.25,5.823-0.438,11.657-0.562,17.48c0,0.376-0.03,0.926-0.094,1.656c-0.061,0.728-0.135,1.464-0.219,2.216
			c-0.084,0.874-0.166,1.789-0.249,2.75c0,0.04-0.042,0.051-0.124,0.029c-0.085-0.02-0.125-0.011-0.125,0.031
			c-0.125-3.826-0.199-7.68-0.219-11.551c-0.023-3.872-0.014-7.746,0.031-11.618c-0.25,0.129-0.46,0.275-0.626,0.438
			c-0.207,0.127-0.395,0.244-0.56,0.346c-0.168,0.102-0.312,0.192-0.438,0.279c-0.084,0.047-0.095,0.035-0.031-0.032
			c0.062-0.059,0.05-0.095-0.032-0.095l1.623-1.555c0-1.747,0-3.728,0-5.936c0-2.248,0.074-4.567,0.219-6.961
			c0.148-2.395,0.397-4.808,0.751-7.244c0.354-2.434,0.877-4.733,1.566-6.901c0.687-2.163,1.583-4.122,2.689-5.869
			c1.105-1.748,2.472-3.163,4.099-4.246c0.634,2.289,1.188,4.497,1.653,6.619C41.153,29.224,41.386,31.472,41.386,33.842z
			 M38.139,37.402c0-0.665-0.031-1.59-0.093-2.777c-0.062-1.187-0.179-2.406-0.344-3.653c-0.168-1.25-0.396-2.413-0.686-3.496
			c-0.292-1.083-0.667-1.853-1.125-2.312c-0.582,0.251-1.083,0.853-1.497,1.811c-0.417,0.959-0.773,2.104-1.062,3.436
			c-0.292,1.331-0.521,2.776-0.689,4.34c-0.166,1.56-0.311,3.059-0.438,4.495c-0.124,1.435-0.208,2.748-0.249,3.935
			c-0.04,1.184-0.083,2.07-0.124,2.652c-0.083,1.458-0.177,2.935-0.281,4.434c-0.104,1.499-0.155,2.977-0.155,4.433v1.063
			c0.041,0,0.228-0.188,0.561-0.564c0.333-0.373,0.687-0.811,1.062-1.31c0.373-0.499,0.728-0.989,1.063-1.466
			c0.333-0.479,0.539-0.824,0.623-1.032c0.625-1.288,1.155-2.476,1.593-3.56c0.437-1.08,0.79-2.152,1.062-3.215
			c0.269-1.062,0.467-2.164,0.592-3.311C38.078,40.162,38.139,38.861,38.139,37.402z"/>
		<path fill="#7A1823" d="M31.406,56.26c2.327,5.352,4.714,10.666,7.155,15.962c0.162,0.335,0.378,0.843,0.64,1.529
			c0.264,0.681,0.521,1.377,0.774,2.087c0.308,0.824,0.636,1.683,0.98,2.583c0.019,0.035-0.017,0.061-0.099,0.081
			c-0.083,0.02-0.117,0.041-0.098,0.082c-1.789-3.39-3.542-6.82-5.257-10.286c-1.717-3.478-3.405-6.962-5.062-10.457L31.406,56.26z"
			/>
	</g>
	<path fill="#7A1823" d="M60.097,57.759c-0.25,0.083-0.499,0.112-0.75,0.092c-0.248-0.021-0.497-0.031-0.749-0.031
		c-0.498,0-0.999,0.011-1.498,0.031s-1-0.01-1.498-0.092c0-2.87-0.117-5.65-0.344-8.335c-0.231-2.687-0.449-5.464-0.658-8.337
		l-0.25-0.124c-1.249,2.165-2.508,4.225-3.778,6.182c-1.271,1.956-2.612,3.977-4.027,6.057l-0.313-0.125
		c0-1.831,0.135-3.652,0.407-5.464c0.269-1.81,0.625-3.592,1.062-5.339c0.437-1.748,0.934-3.496,1.498-5.244
		c0.562-1.749,1.113-3.476,1.655-5.184c0.166-0.5,0.363-1.156,0.592-1.968c0.229-0.812,0.457-1.653,0.688-2.53
		c0.229-0.874,0.428-1.715,0.592-2.528c0.166-0.811,0.25-1.466,0.25-1.967c0-0.706-0.165-1.25-0.499-1.624l4.37-0.063
		c0,0.833,0.031,2.258,0.095,4.278c0.062,2.021,0.156,4.32,0.281,6.901c0.125,2.582,0.29,5.285,0.498,8.115
		c0.209,2.833,0.426,5.465,0.656,7.899c0.229,2.437,0.489,4.518,0.782,6.244C59.451,56.335,59.764,57.383,60.097,57.759z
		 M54.54,39.402c0-0.334-0.011-0.884-0.031-1.657c-0.023-0.77-0.053-1.631-0.094-2.592c-0.043-0.955-0.104-1.966-0.188-3.026
		c-0.085-1.062-0.155-2.061-0.219-2.999c-0.063-0.937-0.134-1.737-0.218-2.404c-0.084-0.666-0.168-1.103-0.25-1.311
		c-0.458,1.58-0.936,3.162-1.438,4.744c-0.498,1.583-0.968,3.175-1.404,4.776c-0.438,1.603-0.791,3.227-1.061,4.87
		c-0.271,1.646-0.406,3.301-0.406,4.965c0,0.249,0.041,0.51,0.125,0.78c0.083,0.271,0.165,0.51,0.249,0.72
		c0.333-0.29,0.729-0.74,1.187-1.343c0.458-0.604,0.928-1.239,1.406-1.905c0.477-0.666,0.927-1.331,1.343-1.997
		C53.956,40.359,54.29,39.818,54.54,39.402z"/>
	<path fill="#7A1823" d="M82.671,21.573c-0.104,0.396-0.178,0.864-0.218,1.405c-0.168,2.457-0.293,4.86-0.377,7.213
		c-0.083,2.353-0.145,4.703-0.187,7.056c-0.041,2.353-0.062,4.713-0.062,7.086c0,2.332,0,4.726,0,7.181
		c0,0.957,0.021,2.03,0.062,3.216c0.043,1.189,0.229,2.235,0.564,3.15c-0.501,0-1.001-0.029-1.5-0.091
		c-0.5-0.06-1.021-0.091-1.562-0.091c-0.497,0-0.998,0.061-1.496,0.183c0.205-2.206,0.343-4.387,0.404-6.552
		c0.064-2.165,0.135-4.329,0.22-6.494c0.083-1.747,0.133-3.465,0.156-5.152c0.021-1.685-0.091,0.8-0.048-0.947
		c-0.583-0.252-7.915-7.013-8.288-7.137c0,0.373-0.01,0.739-0.03,1.092c-0.023,0.354-0.034,0.717-0.034,1.092
		c-0.084,2.996-0.198,6.128-0.343,9.399c-0.146,3.267-0.219,6.399-0.219,9.396c0,0.248,0.009,0.645,0.031,1.187
		c0.023,0.54,0.063,1.092,0.126,1.653c0.062,0.563,0.166,1.083,0.311,1.561c0.147,0.478,0.322,0.782,0.53,0.903
		c-0.582,0-1.176-0.01-1.778-0.029c-0.605-0.021-1.197-0.031-1.778-0.031c-0.212,0-0.417,0.021-0.626,0.061
		c-0.208,0.041-0.416,0.107-0.624,0.193c0.5-4.664,0.833-9.338,0.999-14.021c0.168-4.685,0.208-9.356,0.125-14.019l-0.061-5.308
		c0-0.706-0.064-1.311-0.188-1.81c-0.124-0.5-0.292-0.978-0.5-1.438l4.496-0.249c0,1.583-0.043,3.176-0.124,4.776
		c-0.084,1.604-0.168,3.217-0.249,4.841c1.289,0.457,6.89,6.615,8.225,7.073l0.204-6.263c0-0.541,0.02-1.208,0.064-1.997
		c0.04-0.791,0.061-1.479,0.061-2.062c0.042-1.082,0.02-2.145-0.061-3.186c-0.085-1.04-0.21-2.102-0.376-3.184l4.496-0.373
		C82.889,20.94,82.772,21.18,82.671,21.573z"/>
	<path fill="#7A1823" d="M120.666,37.526c0,1.875-0.229,3.707-0.688,5.496c-0.459,1.792-1.052,3.55-1.781,5.276
		c-0.729,1.729-1.539,3.412-2.433,5.056c-0.898,1.647-1.781,3.261-2.656,4.841c-0.123-0.082-0.208-0.188-0.249-0.316
		c-0.043-0.12-0.103-0.242-0.188-0.369c-0.71-1.377-1.342-2.646-1.902-3.809c-0.564-1.167-1.042-2.344-1.438-3.529
		c-0.397-1.188-0.697-2.424-0.905-3.715c-0.208-1.29-0.312-2.727-0.312-4.309c0-1.914,0.166-3.859,0.501-5.839
		c0.332-1.976,0.819-3.903,1.466-5.775c0.645-1.873,1.458-3.674,2.437-5.402c0.979-1.728,2.111-3.318,3.401-4.777
		c0.665,0.999,1.291,2.239,1.873,3.714c0.584,1.479,1.095,3.008,1.532,4.591c0.436,1.581,0.779,3.154,1.029,4.714
		c0.249,1.56,0.376,2.965,0.376,4.215L120.666,37.526z M117.792,45.583c0.209-1.582,0.292-3.3,0.252-5.153
		c-0.043-1.852-0.219-3.724-0.531-5.619c-0.312-1.894-0.748-3.778-1.311-5.65c-0.56-1.873-1.239-3.6-2.03-5.183
		c-1.123,1.959-2.029,4.164-2.716,6.618c-0.686,2.457-1.031,4.79-1.031,6.995c0,1.083,0.073,2.382,0.218,3.903
		c0.148,1.52,0.388,3.059,0.72,4.621c0.333,1.56,0.749,3.069,1.251,4.524c0.497,1.46,1.102,2.646,1.809,3.559
		c0.251-0.413,0.552-1.018,0.907-1.81c0.353-0.791,0.706-1.611,1.06-2.466c0.353-0.854,0.657-1.677,0.907-2.467
		C117.542,46.666,117.708,46.041,117.792,45.583z"/>
	<path fill="#7A1823" d="M152.293,25.008c-0.188,1.768-0.341,3.84-0.468,6.212c-0.126,2.373-0.219,4.924-0.279,7.65
		c-0.062,2.726-0.097,5.338-0.097,7.836c0,2.457,0.021,4.681,0.066,6.683c0.041,1.997,0.102,3.477,0.184,4.43
		c-0.707,0.128-1.483,0.158-2.337,0.093c-0.854-0.062-1.638-0.032-2.35,0.095c0.28-1,0.498-2.235,0.656-3.715
		c0.156-1.476,0.27-3.005,0.324-4.588c0.062-1.583,0.098-3.133,0.118-4.652c0.02-1.52,0.05-2.841,0.092-3.966
		c0.04-0.955,0.071-2.018,0.091-3.184c0.021-1.167,0.04-2.353,0.066-3.561c0.021-1.206,0.03-2.393,0.03-3.559
		c0-1.165,0-2.225,0-3.184c-0.666,1.207-1.347,2.478-2.053,3.81c-0.707,1.331-1.475,2.665-2.301,3.996
		c-0.835,1.331-1.714,2.622-2.648,3.872c-0.93,1.248-1.956,2.35-3.079,3.308c-1.824-2.08-3.486-4.37-4.98-6.868
		c-1.494-2.497-2.739-5.058-3.735-7.681c-0.08,2.497-0.152,5.1-0.214,7.806c-0.064,2.705-0.105,5.381-0.132,8.023
		c-0.02,2.643-0.009,5.174,0.035,7.586c0.042,2.414,0.129,4.559,0.251,6.429l-4.121,0.066c0.127-1.539,0.249-3.444,0.371-5.714
		c0.132-2.27,0.224-4.693,0.285-7.274c0.06-2.581,0.111-5.214,0.157-7.9c0.04-2.685,0.061-5.213,0.061-7.586
		c0-1.375-0.011-2.747-0.03-4.121c-0.026-1.374-0.117-2.747-0.28-4.122l3.934,0.188c-0.087,0.25-0.091,0.511-0.032,0.78
		c0.062,0.271,0.073,0.531,0.032,0.78c-0.127,0.833-0.011,1.852,0.34,3.059c0.352,1.209,0.818,2.478,1.397,3.812
		c0.586,1.331,1.239,2.662,1.962,3.994c0.727,1.334,1.434,2.521,2.114,3.56c0.69,1.042,1.279,1.895,1.778,2.56
		c0.499,0.667,0.829,0.979,0.997,0.937c0.162,0,0.681-0.572,1.554-1.715c0.869-1.146,1.846-2.552,2.928-4.216
		c1.076-1.664,2.135-3.392,3.171-5.183c1.038-1.789,1.809-3.311,2.307-4.558c0.204-0.501,0.306-1.146,0.306-1.937
		c0-0.833-0.162-1.456-0.498-1.873c0.935,0,1.745,0.011,2.419,0.031c0.683,0.023,1.434-0.01,2.268-0.094l0.06,0.063
		C152.719,22.043,152.481,23.24,152.293,25.008z"/>
	<path fill="#7A1823" d="M161.973,43.616c-0.107,2.976-0.161,5.964-0.161,8.959c0,0.248,0.01,0.645,0.029,1.187
		c0.024,0.541,0.065,1.093,0.132,1.654c0.062,0.563,0.163,1.083,0.305,1.56c0.152,0.479,0.325,0.783,0.533,0.903
		c-0.584,0-1.173-0.009-1.778-0.029c-0.606-0.021-1.195-0.031-1.78-0.031c-0.206,0-0.416,0.021-0.625,0.061
		c-0.208,0.041-0.416,0.107-0.624,0.194c0.503-4.665,0.797-9.338,0.903-14.021c0.106-4.685,0.178-9.357,0.219-14.02l-0.061-5.308
		c-0.082-0.707-0.167-1.311-0.25-1.81c-0.085-0.5-0.229-0.978-0.442-1.438l4.503-0.249c0,2.124-0.076,4.215-0.223,6.276
		L161.973,43.616z"/>
	<path fill="#7A1823" d="M182.239,21.167c-2.125,5.122-4.146,10.231-6.057,15.332c-1.916,5.099-3.73,10.292-5.433,15.58h0.188
		c0.161,0,0.311,0,0.437,0c0.161,0,0.31,0,0.437,0h0.183c0.585,0,1.291,0.011,2.123,0.03c0.835,0.021,1.638,0.116,2.408,0.28
		c0.768,0.168,1.444,0.437,2.029,0.812c0.584,0.373,0.935,0.917,1.062,1.623c0.082,0.792-0.126,1.522-0.625,2.184
		c-0.503,0.67-1.001,1.291-1.499,1.875c-0.376,0.375-0.854,0.864-1.434,1.469c-0.589,0.601-1.209,1.209-1.88,1.81
		c-0.661,0.604-1.332,1.179-1.992,1.718c-0.67,0.538-1.271,0.955-1.813,1.248c0.04,0,0.064-0.039,0.064-0.121
		c0-0.086-0.045-0.105-0.126-0.066c0.625-0.497,1.274-1.051,1.966-1.65c0.687-0.61,1.321-1.25,1.901-1.941
		c0.59-0.681,1.067-1.412,1.443-2.186c0.37-0.768,0.559-1.611,0.559-2.525c0-1.083-0.347-1.946-1.032-2.592
		c-0.686-0.645-1.57-0.967-2.652-0.967c-0.793,0-1.59,0.01-2.402,0.03c-0.813,0.022-1.557,0.197-2.217,0.53
		c-0.214,0.084-0.388,0.187-0.533,0.312c-0.149,0.124-0.26,0.229-0.341,0.312h-0.061c-0.047,0-0.086-0.02-0.133-0.064
		c2.125-5.203,4.178-10.496,6.154-15.889c1.978-5.392,3.796-10.834,5.463-16.329c-0.082,0.041-0.377,0.063-0.873,0.063
		c-0.458,0-0.997,0-1.626,0c-0.621,0-1.245,0-1.871,0c-0.581,0-0.997,0-1.249,0c-0.083,0-0.25,0.238-0.499,0.716
		c-0.249,0.48-0.507,1.052-0.781,1.717c-0.271,0.665-0.549,1.354-0.845,2.06c-0.289,0.709-0.519,1.271-0.68,1.688
		c-0.047-0.043-0.086-0.063-0.128-0.063c-0.047,0-0.065,0.021-0.065,0.063c-0.041-1-0.061-2.104-0.061-3.311
		c0-1.206-0.102-2.374-0.311-3.496c1.875-0.084,3.577-0.125,5.116-0.125c1.546,0,3.167,0.021,4.874,0.062
		C180.343,21.355,181.282,21.293,182.239,21.167z"/>
	<path fill="#7A1823" d="M196.537,36.216c-0.334,0.833-0.7,1.667-1.096,2.497c-0.393,0.833-0.692,1.709-0.906,2.625h-0.243
		c-0.086-0.584-0.174-1.25-0.254-2c-0.082-0.749-0.209-1.395-0.377-1.936c-0.833-0.081-1.661-0.124-2.495-0.124
		c-0.786,0-1.727,0.063-2.809,0.188c-0.082,0.708-0.147,1.489-0.188,2.339c-0.042,0.854-0.062,1.637-0.062,2.344
		c0,0.583,0.02,1.363,0.062,2.341c0.041,0.979,0.117,1.978,0.219,2.996c0.102,1.022,0.238,2.01,0.406,2.968
		c0.163,0.959,0.357,1.684,0.56,2.185c0.213,0.499,0.555,0.936,1.036,1.312c0.478,0.372,1.005,0.561,1.585,0.561
		c0.376,0,0.741-0.135,1.098-0.407c0.356-0.269,0.677-0.507,0.967-0.716l0.188,0.125c-0.041,0.164-0.301,0.497-0.778,0.998
		c-0.482,0.5-1.031,1.011-1.656,1.529c-0.626,0.519-1.208,0.992-1.747,1.402c-0.54,0.417-0.895,0.631-1.063,0.631
		c-0.461,0-0.842-0.285-1.152-0.844c-0.316-0.564-0.586-1.271-0.813-2.125c-0.234-0.854-0.417-1.811-0.561-2.871
		c-0.152-1.064-0.264-2.084-0.345-3.061c-0.086-0.979-0.148-1.862-0.188-2.655c-0.046-0.791-0.065-1.352-0.065-1.685
		c0-1.415,0.042-2.943,0.126-4.591c0.087-1.644,0.221-3.298,0.407-4.962c0.188-1.664,0.446-3.28,0.777-4.841
		c0.335-1.559,0.792-2.985,1.377-4.275c0.168-0.417,0.407-0.877,0.717-1.374c0.314-0.501,0.665-0.989,1.062-1.47
		c0.396-0.477,0.823-0.904,1.281-1.278c0.457-0.376,0.914-0.626,1.376-0.75c0.621-0.208,1.266-0.271,1.931-0.188l1.062,0.061
		c-0.209,0.833-0.4,1.624-0.594,2.374c-0.184,0.75-0.448,1.543-0.776,2.373l-0.188-0.061c0-1.583-0.52-2.374-1.561-2.374
		c-0.544,0-1.031,0.188-1.469,0.562c-0.437,0.373-0.763,0.769-0.966,1.186c-0.126,0.249-0.305,0.864-0.533,1.842
		c-0.229,0.978-0.437,2.04-0.625,3.184c-0.184,1.146-0.366,2.229-0.529,3.248c-0.167,1.021-0.253,1.717-0.253,2.093
		c0,0.165,0,0.333,0,0.499c0,0.125-0.021,0.292-0.062,0.5c1.457,0,2.815-0.063,4.061-0.188
		C193.728,36.28,195.079,36.216,196.537,36.216z"/>
	<g>
		<path fill="#7A1823" d="M91.765,28.462c0.038-0.587,0.06-1.175,0.06-1.761c0-0.584,0-1.169,0-1.754
			c0-0.543-0.032-1.202-0.094-1.977c-0.062-0.775-0.305-1.366-0.722-1.785c0.712-0.085,1.431-0.137,2.165-0.161
			c0.732-0.021,1.453-0.071,2.165-0.155L94.75,33.563c0.626-0.081,1.181-0.106,1.663-0.063c0.478,0.042,0.993,0.063,1.535,0.063
			c0.671,0,1.292,0.134,1.88,0.406c0.586,0.275,1.087,0.628,1.509,1.068c0.413,0.439,0.752,0.93,1.001,1.471
			c0.248,0.543,0.375,1.087,0.375,1.634c0.043,0.584-0.114,1.303-0.47,2.161c-0.356,0.859-0.953,1.581-1.789,2.165
			c-0.627,0.46-1.359,0.752-2.193,0.877c-0.838,0.124-1.631,0.17-2.383,0.124c-0.083,0-0.285,0.012-0.596,0.032
			c-0.313,0.021-0.699-0.01-1.158-0.091c-0.084,1.628-0.044,3.382-0.044,5.054c0,1.629,0.044,3.228,0.13,4.795
			c0.081,1.57,0.207,3.045,0.374,4.422l-4.075-0.059c0.251-3.222,0.447-6.42,0.597-9.598c0.142-3.178,0.259-6.396,0.34-9.657
			 M91.447,37.989c0.043-1.251,0.086-2.508,0.127-3.76c0.042-1.255,0.085-2.508,0.127-3.766l0.064-1.693 M99.455,38.33
			c0-1.464-0.444-2.561-1.334-3.292c-0.886-0.732-2.029-1.095-3.432-1.095c-0.043,0.084-0.083,0.531-0.127,1.343
			c-0.042,0.816-0.091,1.728-0.155,2.729c-0.061,1.003-0.118,1.956-0.158,2.854c-0.042,0.899-0.063,1.454-0.063,1.662v0.564
			c0.455,0,0.983-0.01,1.583-0.033c0.597-0.021,1.083-0.134,1.454-0.346c0.828-0.457,1.408-1.043,1.735-1.755
			C99.29,40.254,99.455,39.374,99.455,38.33z"/>
	</g>
</g>
</svg>
