<?xml version="1.0" encoding="utf-8"?>
<!-- Generator: Adobe Illustrator 16.0.4, SVG Export Plug-In . SVG Version: 6.00 Build 0)  -->
<!DOCTYPE svg PUBLIC "-//W3C//DTD SVG 1.1//EN" "http://www.w3.org/Graphics/SVG/1.1/DTD/svg11.dtd">
<svg version="1.1" id="Layer_1" xmlns="http://www.w3.org/2000/svg" xmlns:xlink="http://www.w3.org/1999/xlink" x="0px" y="0px"
	 width="36.619px" height="31.708px" viewBox="0 0 36.619 31.708" enable-background="new 0 0 36.619 31.708" xml:space="preserve">
<path fill="#151515" d="M0,0l6.423,11.123c-2.166-0.216-4.196-0.498-5.993-0.853c0,1.625,0,1.625,0,6.292
	c3.012-0.36,5.891-0.615,8.679-0.789l9.201,15.935l9.182-15.902c2.92,0.185,5.803,0.443,8.697,0.756c0,0,0-3.375,0-6.373
	c-1.727,0.353-3.75,0.644-5.957,0.872L36.619,0H0z M18.747,24.347l-5.073-8.784c3.484-0.105,6.837-0.08,10.117,0.051L18.747,24.347z
	 M11.322,11.488L6.484,3.111h24.525l-4.781,8.28C21.476,11.696,16.232,11.74,11.322,11.488z"/>
</svg>
