<?xml version="1.0" encoding="utf-8"?>
<!-- Generator: Adobe Illustrator 16.0.4, SVG Export Plug-In . SVG Version: 6.00 Build 0)  -->
<!DOCTYPE svg PUBLIC "-//W3C//DTD SVG 1.1//EN" "http://www.w3.org/Graphics/SVG/1.1/DTD/svg11.dtd">
<svg version="1.1" id="Layer_1" xmlns="http://www.w3.org/2000/svg" xmlns:xlink="http://www.w3.org/1999/xlink" x="0px" y="0px"
	 width="36.619px" height="31.708px" viewBox="0 0 36.619 31.708" enable-background="new 0 0 36.619 31.708" xml:space="preserve">
<path fill="#151515" d="M36.619,31.708l-6.423-11.123c2.166,0.216,4.196,0.498,5.993,0.853c0-1.625,0-1.625,0-6.292
	c-3.012,0.36-5.891,0.615-8.679,0.789L18.309,0L9.126,15.902c-2.919-0.185-5.802-0.443-8.697-0.756c0,0,0,3.375,0,6.373
	c1.727-0.353,3.75-0.644,5.958-0.872L0,31.708H36.619z M17.872,7.361l5.073,8.785c-3.484,0.105-6.837,0.08-10.116-0.051
	L17.872,7.361z M25.296,20.22l4.838,8.377H5.609l4.781-8.28C15.143,20.012,20.386,19.968,25.296,20.22z"/>
</svg>
